#!OML:ASF E:\emotionWalksFemale\Project 1\Capture day 1\Session 1\Female1.ASF
:FULLY-SPECIFIED
:DEGREES
932
root 8.5741 14.9722 -33.0154 175.967 -43.8803 176.892
lowerback 0.9725 2.31079 3.36832
upperback -6.67832 3.11736 3.44369
thorax -7.54256 1.2979 1.51924
lowerneck -0.61808 -3.77638 -0.280644
upperneck 5.67852 -4.87712 -12.0829
head 1.61328 -2.85988 -3.98624
rclavicle 1.47101e-014 -1.90833e-014
rhumerus -22.7761 -29.6985 -17.7988
rradius 29.5362
rwrist 29.2168
rhand -9.69052 -61.5381
rfingers 7.12502
rthumb 16.2817 90.8746
lclavicle 1.47101e-014 -1.90833e-014
lhumerus -35.3939 40.2895 -9.07252
lradius 31.58
lwrist -9.4436
lhand 5.45456 -16.8493
lfingers 7.12502
lthumb 30.8034 10.5895
rfemur -19.6739 17.3416 16.8848
rtibia 60.6366
rfoot -23.3259 -1.45026
rtoes -27.3534
lfemur 0.205984 -8.96005 -36.6567
ltibia 30.8946
lfoot -19.4606 13.4492
ltoes -7.34611
933
root 8.57557 14.9656 -33.0655 176.105 -45.8631 176.843
lowerback 1.03822 2.53336 3.22404
upperback -6.6431 3.42165 3.26901
thorax -7.54073 1.4596 1.3901
lowerneck -0.634229 -4.20893 -0.646199
upperneck 5.77389 -5.43814 -11.9531
head 1.62213 -3.1446 -3.87761
rclavicle -7.55382e-014 -2.70347e-014
rhumerus -22.0503 -29.4339 -19.0136
rradius 30.3849
rwrist 29.1887
rhand -8.95945 -60.4349
rfingers 7.12502
rthumb 16.9855 270.288
lclavicle -7.55382e-014 -2.70347e-014
lhumerus -33.2147 42.8159 -9.05034
lradius 30.9115
lwrist -12.4187
lhand 6.65749 -15.6144
lfingers 7.12502
lthumb 31.9496 11.6016
rfemur -19.6093 17.5099 16.8854
rtibia 58.2906
rfoot -23.2429 0.507001
rtoes -22.0742
lfemur -0.11026 -9.33658 -36.3632
ltibia 31.8636
lfoot -19.7073 11.6628
ltoes -10.5159
934
root 8.57629 14.9619 -33.1273 176.022 -47.9797 176.886
lowerback 1.04599 2.64904 3.00371
upperback -6.50412 3.57855 3.16257
thorax -7.4013 1.55959 1.38847
lowerneck -0.691782 -4.47483 -0.936384
upperneck 5.90945 -5.76937 -11.7796
head 1.66809 -3.31457 -3.7711
rclavicle -4.53229e-014 1.90833e-014
rhumerus -20.1752 -28.9752 -20.3603
rradius 29.3311
rwrist 29.2435
rhand -8.69099 -61.1205
rfingers 7.12502
rthumb 17.2439 90.3754
lclavicle -4.53229e-014 1.90833e-014
lhumerus -30.924 43.9573 -8.54446
lradius 30.4202
lwrist -14.359
lhand 6.8935 -14.573
lfingers 7.12502
lthumb 32.1743 12.5978
rfemur -19.1785 18.0613 17.0251
rtibia 55.9862
rfoot -23.7148 0.63349
rtoes -27.0646
lfemur -0.203278 -9.5119 -35.9514
ltibia 32.7379
lfoot -19.8902 10.3602
ltoes -16.7621
935
root 8.57377 14.9601 -33.1851 175.648 -50.0851 177.224
lowerback 1.16793 2.81472 3.09192
upperback -6.37211 3.82139 3.04883
thorax -7.31737 1.68086 1.19769
lowerneck -0.580789 -4.69539 -1.13413
upperneck 5.96507 -6.05456 -11.5279
head 1.66126 -3.4473 -3.64559
rclavicle -5.40694e-014 -1.74931e-014
rhumerus -19.8189 -27.5715 -21.5825
rradius 30.4729
rwrist 28.8686
rhand -9.18487 -60.2017
rfingers 7.12502
rthumb 16.7685 -89.4976
lclavicle -5.40694e-014 -1.74931e-014
lhumerus -27.977 42.9339 -7.12263
lradius 30.0448
lwrist -14.8548
lhand 6.45159 -13.7748
lfingers 7.12502
lthumb 31.7535 13.4803
rfemur -18.6296 18.7177 17.3215
rtibia 53.7485
rfoot -24.2209 1.95961
rtoes -24.408
lfemur -0.223347 -9.73664 -35.3933
ltibia 33.5027
lfoot -19.9617 8.96779
ltoes -18.6327
936
root 8.57421 14.9615 -33.2283 176.41 -52.2565 176.664
lowerback 1.06735 3.13201 2.91824
upperback -6.43527 4.22801 2.61737
thorax -7.30458 1.88493 0.816296
lowerneck -0.396799 -4.95368 -2.08567
upperneck 6.19619 -6.38 -10.3959
head 1.74696 -3.59628 -3.08947
rclavicle -7.23576e-014 7.95139e-015
rhumerus -19.5458 -23.5414 -22.5785
rradius 30.96
rwrist 26.3759
rhand -11.0953 -58.4974
rfingers 7.12502
rthumb 14.9287 -87.9394
lclavicle -7.23576e-014 7.95139e-015
lhumerus -24.268 40.937 -4.88593
lradius 29.911
lwrist -15.3869
lhand 5.69067 -13.2179
lfingers 7.12502
lthumb 31.0285 14.1781
rfemur -18.6805 19.081 16.773
rtibia 51.7224
rfoot -24.7088 1.6526
rtoes -27.1208
lfemur -0.752739 -10.0622 -35.4115
ltibia 34.1065
lfoot -19.5847 7.67773
ltoes -19.1497
937
root 8.57669 14.9645 -33.2815 176.46 -54.3899 176.682
lowerback 1.15636 3.44111 2.99335
upperback -6.38388 4.65136 2.33528
thorax -7.26908 2.08863 0.445721
lowerneck -0.257882 -5.22049 -2.37019
upperneck 6.33863 -6.72626 -10.0374
head 1.77268 -3.7625 -2.92071
rclavicle -5.84427e-014 3.97569e-015
rhumerus -19.5411 -21.1221 -23.3389
rradius 31.5206
rwrist 26.244
rhand -12.5972 -59.4527
rfingers 7.12502
rthumb 13.4815 -88.9963
lclavicle -5.84427e-014 3.97569e-015
lhumerus -20.3623 39.638 -2.52124
lradius 29.9103
lwrist -17.3107
lhand 5.21033 -13.3663
lfingers 7.12502
lthumb 30.5706 14.1162
rfemur -18.2807 19.9195 16.7805
rtibia 49.7787
rfoot -25.0767 0.898324
rtoes -28.6708
lfemur -0.958443 -10.0033 -35.0424
ltibia 34.6453
lfoot -19.2809 6.80856
ltoes -23.0277
938
root 8.57614 14.9676 -33.338 176.815 -56.5675 176.261
lowerback 1.1355 3.72395 2.80093
upperback -6.21592 5.02011 1.99157
thorax -7.05622 2.2866 0.173034
lowerneck -0.679706 -5.36099 -3.41652
upperneck 6.99976 -6.83989 -8.74762
head 2.13645 -3.83716 -2.35858
rclavicle 3.97569e-014 1.51076e-014
rhumerus -19.3745 -17.8463 -24.1451
rradius 31.8255
rwrist 26.1961
rhand -14.3763 -59.7771
rfingers 7.12502
rthumb 11.7663 -89.4266
lclavicle 3.97569e-014 1.51076e-014
lhumerus -17.3879 35.58 -0.951522
lradius 30.2885
lwrist -16.7828
lhand 4.87594 -13.4536
lfingers 7.12502
lthumb 30.2516 14.0878
rfemur -17.813 21.1279 16.3983
rtibia 47.9758
rfoot -25.268 1.60061
rtoes -25.3423
lfemur -1.01364 -9.74707 -34.9294
ltibia 35.1256
lfoot -19.3105 5.86668
ltoes -26.4038
939
root 8.57524 14.9801 -33.3942 177.273 -58.9022 175.826
lowerback 1.03938 4.01576 2.6942
upperback -6.07448 5.39587 1.5823
thorax -6.81242 2.48038 -0.207136
lowerneck -0.921642 -5.46188 -2.59775
upperneck 7.27516 -6.93335 -9.08308
head 2.22936 -3.88119 -2.6301
rclavicle 7.95139e-016 -2.22639e-014
rhumerus -19.5307 -14.8022 -24.7858
rradius 31.8721
rwrist 27.4944
rhand -16.1794 -59.942
rfingers 7.12502
rthumb 10.0271 -89.6831
lclavicle 7.95139e-016 -2.22639e-014
lhumerus -15.0893 41.256 0.211057
lradius 30.8431
lwrist -26.0956
lhand 6.07601 -15.4628
lfingers 7.12502
lthumb 31.3957 11.8625
rfemur -17.3757 21.5383 16.2417
rtibia 46.2678
rfoot -25.61 0.00685465
rtoes -28.6697
lfemur -1.07484 -9.77257 -34.7543
ltibia 35.6108
lfoot -19.3952 3.79758
ltoes -17.1757
940
root 8.57963 14.9885 -33.4575 177.335 -61.5074 175.807
lowerback 1.08982 4.20323 2.66559
upperback -6.00603 5.64615 1.30641
thorax -6.73763 2.6058 -0.494686
lowerneck -1.30923 -5.55057 -2.55718
upperneck 7.89936 -6.98829 -8.83723
head 2.51286 -3.92661 -2.59885
rclavicle 2.96189e-014 -1.19271e-014
rhumerus -19.7014 -11.9354 -25.2376
rradius 31.797
rwrist 30.6335
rhand -16.5036 -60.8765
rfingers 7.12502
rthumb 9.71427 -269.367
lclavicle 2.96189e-014 -1.19271e-014
lhumerus -11.2751 44.0242 2.8663
lradius 31.1995
lwrist -31.9772
lhand 7.34104 -15.9804
lfingers 7.12502
lthumb 32.6003 11.1033
rfemur -16.7712 22.101 16.3228
rtibia 44.6468
rfoot -25.9369 -0.125038
rtoes -26.9325
lfemur -1.10777 -9.97311 -34.3272
ltibia 36.0989
lfoot -19.314 1.98849
ltoes -8.7602
